<svg width="32" height="32" viewBox="0 0 32 32" fill="none" xmlns="http://www.w3.org/2000/svg">
<path d="M9.0071 12.2447C8.42376 12.5924 7.81332 12.8007 7.16384 12.8703C6.72626 12.9195 6.31006 12.8688 5.96197 12.7339C5.3913 12.5075 4.96788 12.1 4.70726 11.527C4.64712 11.3948 4.64297 11.2417 4.70207 11.1006C4.94404 10.5144 5.3524 10.1029 5.92169 9.85693C6.26326 9.70936 6.68344 9.65188 7.11987 9.68432C8.02204 9.75663 8.84824 10.0983 9.64342 10.7013L10.0745 10.6934C10.1645 10.3222 10.3599 9.98166 10.634 9.69999L10.4095 9.32335C9.4742 8.96574 8.74942 8.43909 8.22055 7.7085C7.9593 7.35376 7.79442 6.9727 7.74047 6.60022C7.64962 5.98828 7.79248 5.42378 8.15987 4.91221C8.24458 4.79324 8.37778 4.71384 8.52273 4.69592C9.14748 4.61611 9.71197 4.75897 10.207 5.12998C10.509 5.35461 10.7658 5.68091 10.9535 6.07946C11.34 6.89492 11.4585 7.78298 11.3281 8.77578L11.5526 9.15242C11.928 9.04071 12.3233 9.03543 12.6926 9.13279L12.9046 8.75741C12.7497 7.76654 12.8422 6.87726 13.2059 6.05663C13.3822 5.65272 13.6308 5.31779 13.9277 5.0848C14.4102 4.70378 14.971 4.53759 15.6018 4.6036C15.7466 4.61686 15.8794 4.69336 15.9744 4.81102C16.359 5.3101 16.5161 5.87638 16.4391 6.48875C16.3922 6.8591 16.2388 7.24933 15.9874 7.61084C15.6172 8.149 15.1436 8.5869 14.5603 8.93461C14.3352 9.06876 14.0919 9.18269 13.8385 9.29017L13.6265 9.66555C13.7609 9.79708 13.8889 9.93868 13.9902 10.1086C14.0915 10.2786 14.1551 10.4585 14.2069 10.6393L14.6453 10.6332C15.4211 10.0027 16.2383 9.6401 17.1401 9.54458C17.5776 9.49541 17.9938 9.54613 18.3419 9.68103C18.9126 9.90736 19.336 10.3148 19.5966 10.8878C19.6568 11.0201 19.6563 11.176 19.6018 11.3143C19.4023 11.7943 19.0913 12.1602 18.6733 12.4093C18.5815 12.4641 18.4869 12.5142 18.3868 12.5552C18.0452 12.7028 17.6296 12.7575 17.1886 12.7278C16.2864 12.6555 15.4602 12.3138 14.6697 11.7081L14.2386 11.716C14.1504 12.0798 13.955 12.4204 13.6855 12.6994C13.7649 12.8326 13.8489 12.963 13.9283 13.0962C14.8471 13.4575 15.5618 13.9777 16.0898 14.6963C16.351 15.0511 16.5159 15.4321 16.5699 15.8046C16.6266 16.1817 16.5833 16.5374 16.4622 16.8773C16.8577 17.4259 17.256 17.9479 17.6453 18.4443C17.6904 18.0501 17.8062 17.6698 18.0044 17.3026C18.4304 16.5134 19.1528 15.9395 20.0863 15.657C20.8132 15.4354 21.5727 15.3936 22.3289 15.5342C22.5186 15.5705 22.6796 15.7049 22.7414 15.8922C22.8032 16.0794 22.7559 16.282 22.6225 16.4237C22.249 16.8206 21.7747 17.5391 21.669 18.2496C21.5044 19.3624 20.8908 20.0145 20.2064 20.4224C19.9997 20.5456 19.7931 20.6377 19.5838 20.7251C21.2714 22.5329 22.8233 23.7369 24.125 24.2185C24.4035 24.3201 24.5438 24.6287 24.4421 24.9072C24.3959 25.0281 24.3141 25.1205 24.213 25.1807C24.0798 25.2601 23.911 25.2798 23.7534 25.2243C22.8163 24.874 21.8543 24.2522 20.9092 23.4709L20.8311 23.5175C20.4478 23.8456 20.0148 24.1846 19.5372 24.4693C18.6369 25.0059 17.5647 25.3586 16.3256 25.1075C15.4421 24.9307 14.2556 25.1647 13.5093 25.4166C13.3037 25.4894 13.0783 25.4245 12.9394 25.2646C12.8004 25.1046 12.7663 24.8697 12.8622 24.6756C13.2727 23.8395 13.8637 23.0764 14.6203 22.4137C15.5682 21.581 16.6482 21.0742 17.7417 20.9454C17.9343 20.9239 18.1205 20.9125 18.3076 20.9131C18.2893 20.8928 18.2683 20.868 18.25 20.8478C17.3368 19.8171 16.4917 18.7335 15.7472 17.7143C15.1363 17.7859 14.5837 17.6421 14.106 17.2794C13.8041 17.0548 13.5473 16.7285 13.3596 16.33C12.9731 15.5145 12.8546 14.6264 12.9804 13.6364L12.7558 13.2597C12.3804 13.3714 11.9852 13.3767 11.6159 13.2794L11.4039 13.6547C11.5587 14.6456 11.4663 15.5349 11.1026 16.3555C10.9263 16.7594 10.6777 17.0944 10.3808 17.3274C10.2972 17.3959 10.208 17.4552 10.1162 17.51C9.6982 17.7591 9.22378 17.8614 8.71131 17.8058C8.56371 17.788 8.4337 17.7161 8.33867 17.5984C7.95403 17.0993 7.79702 16.533 7.87399 15.9207C7.92091 15.5503 8.07427 15.1601 8.32567 14.7986C8.84138 14.0554 9.54909 13.5091 10.47 13.122L10.6839 12.7393C10.5495 12.6077 10.4215 12.4661 10.3202 12.2962C10.2189 12.1262 10.1552 11.9463 10.1035 11.7655L9.67242 11.7734C9.44814 11.9507 9.23217 12.1106 9.0071 12.2447ZM7.03333 10.7506C6.76561 10.7297 6.52801 10.7592 6.33978 10.8403C6.10473 10.9368 5.93098 11.084 5.80015 11.2927C5.93528 11.4985 6.11829 11.6384 6.35553 11.7336C6.54331 11.8084 6.78259 11.8338 7.05137 11.8044C7.59627 11.7472 8.0911 11.5644 8.57436 11.2576C8.07727 10.9563 7.5761 10.7944 7.03333 10.7506ZM15.0987 7.00759C15.2525 6.78519 15.3439 6.56261 15.3674 6.36184C15.3993 6.1125 15.356 5.88311 15.2438 5.66361C14.998 5.6794 14.7859 5.76224 14.5892 5.92307C14.4329 6.04734 14.2893 6.24501 14.1804 6.49047C13.9607 6.98871 13.8647 7.50657 13.8906 8.08256C14.3976 7.80524 14.7911 7.45239 15.0987 7.00759ZM17.2632 11.6624C17.5309 11.6834 17.7686 11.6538 17.9568 11.5727C18.1891 11.4716 18.3674 11.3217 18.4964 11.1203C18.3613 10.9145 18.1783 10.7746 17.9438 10.6841C17.756 10.6092 17.5167 10.5838 17.2479 10.6133C16.703 10.6704 16.2128 10.8505 15.7249 11.16C16.2193 11.4567 16.7205 11.6187 17.2632 11.6624ZM20.6121 18.0952C20.6953 17.5351 20.9307 16.9901 21.2108 16.5306C20.9366 16.5509 20.6668 16.5996 20.3924 16.6823C19.9353 16.824 19.3034 17.1322 18.9365 17.8116C18.7217 18.2135 18.5043 18.8411 18.9233 19.8364C19.9991 19.469 20.4802 18.9706 20.6121 18.0952ZM9.19787 15.4054C9.04408 15.6278 8.95265 15.8504 8.92914 16.0512C8.89998 16.3051 8.936 16.5327 9.05276 16.7494C9.29858 16.7336 9.51066 16.6508 9.70737 16.49C9.86363 16.3657 10.0073 16.168 10.1162 15.9226C10.3359 15.4243 10.4318 14.9065 10.406 14.3305C9.89898 14.6078 9.50546 14.9606 9.19787 15.4054ZM9.56351 5.9929C9.36036 5.84008 9.146 5.76243 8.89841 5.75437C8.79232 5.97324 8.75865 6.19874 8.79185 6.45286C8.82337 6.65196 8.92361 6.87234 9.07887 7.09105C9.40407 7.53218 9.80108 7.87447 10.312 8.1364C10.322 7.55776 10.2143 7.04298 9.97914 6.55442C9.86981 6.30834 9.72364 6.11533 9.56351 5.9929ZM17.8633 22.0058C16.9863 22.1115 16.1038 22.5317 15.3177 23.2181C15.0116 23.4878 14.7375 23.7695 14.4963 24.0751C15.1716 23.9651 15.9007 23.9351 16.5359 24.0608C17.6678 24.2887 18.73 23.8984 20.0749 22.7605C19.5027 22.1243 18.8045 21.893 17.8633 22.0058ZM14.7331 16.4201C14.9362 16.573 15.1506 16.6506 15.3981 16.6587C15.5042 16.4398 15.5425 16.2116 15.5047 15.9602C15.4732 15.7611 15.373 15.5407 15.2177 15.322C14.8925 14.8809 14.4955 14.5386 13.9845 14.2766C13.9746 14.8553 14.0822 15.3701 14.3174 15.8586C14.4268 16.1047 14.5729 16.2977 14.7331 16.4201ZM12.6959 12.1252C13.2011 11.824 13.3681 11.1642 13.0669 10.6589C12.7658 10.1537 12.106 9.98671 11.6007 10.2879C11.0954 10.589 10.9285 11.2488 11.2296 11.7541C11.5308 12.2593 12.1906 12.4263 12.6959 12.1252Z" fill="#359740"/>
</svg>
