<svg width="28" height="28" viewBox="0 0 28 28" fill="none" xmlns="http://www.w3.org/2000/svg">
<g clip-path="url(#clip0_23_2698)">
<path d="M22.3862 9.17556C21.1393 7.2725 19.187 6.07274 17.0923 5.73488C17.1137 5.59008 17.0923 5.43149 17.0139 5.29359C16.8643 5.03157 16.5579 4.88677 16.2444 4.94883L11.9195 5.81072L11.321 4.03177C11.2355 3.77665 11.0004 3.59048 10.7225 3.5629C10.4447 3.53532 10.1739 3.66633 10.0314 3.90076L8.74178 6.03137C7.8654 5.38322 6.78953 4.94193 5.6994 4.94193C5.30753 4.94193 4.9869 5.25221 4.9869 5.63145C4.9869 6.01068 5.30753 6.32096 5.6994 6.32096C6.5259 6.32096 7.3524 6.70709 8.0079 7.22423L3.88253 9.88576C3.6189 10.0512 3.5049 10.3684 3.59753 10.658C3.68303 10.9476 3.9609 11.1476 4.2744 11.1476H6.17678L5.00828 15.0985C4.92278 15.4019 5.05103 15.7191 5.3289 15.8777C5.4429 15.9466 5.57115 15.9673 5.6994 15.9673C5.71365 18.222 6.74678 20.4078 8.64915 21.8144C11.4635 23.8898 15.5604 24.9448 20.8329 24.9448C21.0324 24.9448 21.2319 24.9448 21.4314 24.9379C23.0844 24.9103 24.488 23.6899 24.6947 22.0971C25.3715 16.8912 24.5949 12.5473 22.3862 9.17556ZM23.2839 21.9247C23.1628 22.8418 22.3648 23.5451 21.4172 23.5589C16.1803 23.6347 12.176 22.6832 9.5184 20.7181C7.65165 19.339 6.81803 17.0292 7.23128 14.8089L8.25728 13.8505C7.31678 16.1259 7.99365 18.7254 9.95303 20.1733C12.3827 21.9661 16.0449 22.8762 20.8329 22.8762C21.0253 22.8762 21.2176 22.8762 21.4172 22.8694C21.809 22.8625 22.1225 22.5453 22.1154 22.166C22.1083 21.7868 21.7877 21.4903 21.4029 21.4903C21.3958 21.4903 21.3958 21.4903 21.3887 21.4903C16.6505 21.5731 13.088 20.7456 10.8223 19.077C9.29753 17.9531 8.82728 15.8501 9.71078 14.0849L11.5562 16.4017C11.6844 16.5672 11.8982 16.6637 12.1119 16.6637C12.1903 16.6637 12.2687 16.6499 12.3399 16.6292C12.632 16.5327 12.8244 16.2707 12.8244 15.9742V11.0648L17.8974 10.4512C18.218 10.4098 18.4745 10.1685 18.5173 9.85818C18.56 9.5479 18.3819 9.25141 18.0827 9.12729L15.0759 7.93443L15.9879 7.01738C18.0185 7.05185 19.9922 8.08613 21.182 9.90645C23.2055 13.0093 23.918 17.0498 23.2839 21.9247ZM8.94128 8.27229C8.95553 8.2654 8.95553 8.2585 8.96265 8.25161C9.15503 8.5481 9.2619 8.8377 9.2619 9.07903C9.2619 9.45826 9.58253 9.76854 9.9744 9.76854C10.3663 9.76854 10.6869 9.45826 10.6869 9.07903C10.6869 8.42399 10.3449 7.68621 9.78915 7.01738L10.4518 5.92104L10.7582 6.83121C10.8722 7.16907 11.2284 7.36213 11.5775 7.29318L14.2637 6.75536L13.3089 7.71379C13.145 7.87927 13.0738 8.11371 13.1237 8.33435C13.1735 8.555 13.3303 8.74117 13.5512 8.8308L15.0189 9.41L12.0193 9.77544C11.6702 9.81681 11.3994 10.1133 11.3994 10.4581V13.947L9.61815 11.7061C9.49703 11.5475 9.30465 11.451 9.10515 11.4372C9.0909 11.4372 9.06953 11.4372 9.05528 11.4372C8.87003 11.4372 8.6919 11.5061 8.55653 11.6302L7.11728 12.9817L7.8084 10.6373C7.87253 10.4374 7.82978 10.2167 7.6944 10.0444C7.55903 9.87197 7.34528 9.76854 7.1244 9.76854H6.62565L8.94128 8.27229Z" fill="#359740"/>
<path d="M15.1691 13.7053C15.3116 13.8363 15.4897 13.9052 15.675 13.9052C15.8602 13.9052 16.0384 13.8363 16.1809 13.7053C16.4587 13.4364 16.4587 13.002 16.1809 12.7331L15.4684 12.0435C15.1905 11.7746 14.7416 11.7746 14.4637 12.0435C14.1859 12.3125 14.1859 12.7468 14.4637 13.0158L15.1691 13.7053Z" fill="#359740"/>
<path d="M19.4441 13.0158C19.5866 13.1468 19.7647 13.2157 19.95 13.2157C20.1352 13.2157 20.3133 13.1468 20.4558 13.0158C20.7337 12.7468 20.7337 12.3125 20.4558 12.0435L19.7433 11.354C19.4655 11.0851 19.0166 11.0851 18.7387 11.354C18.4608 11.6229 18.4608 12.0573 18.7387 12.3262L19.4441 13.0158Z" fill="#359740"/>
<path d="M16.1809 17.5528L15.4684 16.8632C15.1905 16.5943 14.7416 16.5943 14.4637 16.8632C14.1859 17.1322 14.1859 17.5665 14.4637 17.8355L15.1762 18.525C15.3116 18.6629 15.4897 18.7318 15.675 18.7318C15.8602 18.7318 16.0384 18.6629 16.1809 18.5319C16.4587 18.263 16.4587 17.8217 16.1809 17.5528Z" fill="#359740"/>
<path d="M18.0192 16.4633C18.1617 16.5943 18.3398 16.6633 18.525 16.6633C18.7103 16.6633 18.8884 16.5943 19.0309 16.4633C19.3088 16.1944 19.3088 15.76 19.0309 15.4911L18.3184 14.8016C18.0405 14.5327 17.5917 14.5327 17.3138 14.8016C17.0359 15.0705 17.0359 15.5049 17.3138 15.7738L18.0192 16.4633Z" fill="#359740"/>
<path d="M20.8692 16.4633L21.5817 17.1528C21.7242 17.2839 21.9023 17.3528 22.0875 17.3528C22.2728 17.3528 22.4509 17.2839 22.5934 17.1528C22.8713 16.8839 22.8713 16.4495 22.5934 16.1806L21.8809 15.4911C21.603 15.2222 21.1542 15.2222 20.8763 15.4911C20.5913 15.7531 20.5913 16.1944 20.8692 16.4633Z" fill="#359740"/>
<path d="M19.7433 18.2423C19.4655 17.9734 19.0166 17.9734 18.7387 18.2423C18.4608 18.5112 18.4608 18.9456 18.7387 19.2145L19.4512 19.9041C19.5866 20.042 19.7647 20.1109 19.95 20.1109C20.1352 20.1109 20.3133 20.042 20.4558 19.911C20.7337 19.642 20.7337 19.2077 20.4558 18.9387L19.7433 18.2423Z" fill="#359740"/>
</g>
<defs>
<clipPath id="clip0_23_2698">
<rect width="21.375" height="21.375" fill="white" transform="translate(3.5625 3.5625)"/>
</clipPath>
</defs>
</svg>
