<svg width="24" height="24" viewBox="0 0 24 24" fill="none" xmlns="http://www.w3.org/2000/svg">
<path d="M10.2524 4.62435L8.72845 3.21496C8.42006 2.92835 7.93686 2.92835 7.62846 3.21496L6.10409 4.62435C5.40473 5.27432 5 6.18283 5 7.13386V13.1289C5 13.6037 5.39964 14.0115 5.87786 14.0115H7.66477V15.5827C7.26705 15.7732 6.94886 16.1883 6.94886 16.6701V19.8146C6.94886 20.4765 7.50691 21 8.1737 21H8.17577C8.8426 21 9.375 20.4765 9.375 19.8146V16.6701C9.375 16.1883 9.09659 15.7732 8.69886 15.5827V14.0018V11.4885C8.69886 11.2968 8.84121 11.1687 9.03439 11.1687H9.03494C9.22808 11.1687 9.375 11.2968 9.375 11.4885V14.0115H10.4678C10.9461 14.0115 11.3636 13.6037 11.3636 13.1289V7.13386C11.3636 6.18283 10.9518 5.27432 10.2524 4.62435ZM18.4917 3.42998H18.4507C18.1565 3.42998 17.9261 3.64714 17.9261 3.93924V6.70582C17.9261 7.11029 17.5836 7.45727 17.1762 7.45727H17.1742C16.7667 7.45727 16.4148 7.11029 16.4148 6.70582V3.93924C16.4148 3.64714 16.2 3.42998 15.9057 3.42998H15.9037C15.6094 3.42998 15.3807 3.64714 15.3807 3.93924V6.70582C15.3807 7.11029 15.0426 7.45727 14.6352 7.45727H14.6332C14.2258 7.45727 13.9091 7.11029 13.9091 6.70582V3.93924C13.9091 3.64714 13.659 3.42998 13.3647 3.42998H13.3627C13.0685 3.42998 12.8352 3.64714 12.8352 3.93924V13.0868C12.8352 13.5848 13.2427 14.0115 13.7443 14.0115H15.4205V15.5827C14.983 15.7732 14.7045 16.1883 14.7045 16.6701V19.8146C14.7045 20.4765 15.2585 21 15.9254 21H15.9246C16.5914 21 17.1307 20.4765 17.1307 19.8146V16.6701C17.1307 16.1883 16.8523 15.7732 16.4148 15.5827V11.4402C16.4943 11.2714 16.5943 11.1413 16.7709 11.1413C16.964 11.1413 17.1307 11.2968 17.1307 11.4885V14.0115H18.1162C18.6179 14.0115 19 13.5848 19 13.0868V3.93924C19 3.64714 18.786 3.42998 18.4917 3.42998Z" fill="#359740"/>
</svg>
